<?xml version="1.0" encoding="UTF-8" standalone="no"?>
<!-- Created with Inkscape (http://www.inkscape.org/) -->

<svg
   width="266.17136mm"
   height="121.17917mm"
   viewBox="0 0 266.17136 121.17917"
   version="1.1"
   id="svg1"
   xml:space="preserve"
   xmlns="http://www.w3.org/2000/svg"
   xmlns:svg="http://www.w3.org/2000/svg"><defs
     id="defs1" /><g
     id="layer1"
     transform="translate(-83.018257,24.266535)"><g
       id="g144"><g
         id="g146"
         transform="translate(40.193953,-0.36463548)"><g
           id="g143"
           transform="translate(-7.857724,-0.37417734)"><path
             id="path142"
             style="fill:#000000;stroke:#000000;stroke-width:0.382804;stroke-linecap:square;stroke-dasharray:none;stroke-dashoffset:11.5056;stroke-opacity:0.956647"
             d="m 198.09444,-11.968586 c -9e-5,3.9158098 3.13195,6.34184 6.99543,6.3416518 3.86328,-9.17e-5 6.41105,-1.8667208 6.41097,-5.7823328 2e-4,-9.270854 -13.4066,-9.830176 -13.4064,-0.559319 z m 9.74049,-0.595312 c 0,1.662179 -1.08288,3.208079 -2.74506,3.208072 -1.66218,2e-6 -3.27421,-1.545897 -3.27421,-3.208072 -1e-5,-3.935376 6.01928,-3.935381 6.01927,0 z" /></g><g
           id="g145"><path
             style="fill:#000000"
             d="m 123.69731,94.08368 c 2.34954,-3.74972 3.32457,-5.19276 5.26275,-7.78891 1.16662,-1.56263 2.80283,-3.62731 3.63604,-4.58819 1.96566,-2.26683 1.97073,-1.99898 -0.0717,-3.79848 C 126.07884,72.2293 119.44909,69.44186 105.18069,66.41158 73.53547,59.69088 55.893504,42.40839 58.315982,20.50182 60.645142,-0.56098 84.342981,-10.6441 90.715031,6.71643 c 2.24872,6.12659 -2.02267,14.16355 -6.57496,12.37135 -3.89296,-1.53262 -1.83386,-8.13021 2.42854,-7.78133 0.85906,0.0703 0.90657,-0.27056 0.15582,-1.11807 -0.35188,-0.39725 -2.16265,-2.67381 -4.02395,-5.05904 -3.844,-4.92607 -3.6172,-4.86682 -6.96238,-1.81875 -13.305829,12.124 -4.433219,32.21485 12.54628,28.40937 C 102.95474,28.43202 107.28139,2.85028 95.118191,-8.68565 74.644124,-28.10384 38.722294,2.77464 46.542704,33.06991 c 0.17975,0.69633 0.63612,2.47547 1.01416,3.95363 4.52535,17.69457 15.740108,29.2217 35.494697,36.48339 26.322769,9.6761 34.362189,14.02569 39.070439,21.13843 0.59634,0.90089 0.67693,0.87216 1.57535,-0.56168 z m -0.55189,-8.84161 c -0.99635,-1.26195 -0.35234,-3.61314 1.20441,-4.39714 2.2822,-1.14932 4.43665,1.08304 3.45403,3.57895 -0.77998,1.98121 -3.37969,2.43781 -4.65844,0.81819 z M 79.460291,67.37344 c -2.24885,-2.24955 0.74932,-6.54371 3.29655,-4.72152 2.13047,1.52404 1.00847,5.35923 -1.58358,5.41295 -1.11009,0.023 -0.92346,0.0983 -1.71296,-0.69146 z m 6.83057,2.35499 c -1.03518,-2.37951 1.13356,-4.91157 3.43183,-4.00676 2.23907,0.8815 2.04632,4.5214 -0.28239,5.33289 -1.2526,0.43649 -2.63605,-0.14604 -3.14945,-1.32611 z M 72.250736,64.10615 c -1.347914,-1.29025 -0.904184,-3.9458 0.802957,-4.80553 1.658671,-0.83532 3.518408,0.1732 3.706788,2.01016 0.27256,2.65782 -2.717354,4.51111 -4.509745,2.79537 z m 21.830285,8.30416 c -0.97741,-1.67115 -0.24142,-3.76957 1.53124,-4.36578 2.9134,-0.97988 4.560589,2.83562 2.13848,4.95351 -1.1757,1.02803 -2.8848,0.7543 -3.66972,-0.58773 z m 8.171059,2.75526 c -1.61293,-1.79658 -0.32455,-4.85254 2.06669,-4.9021 2.80314,-0.0581 3.4718,4.09333 0.86256,5.35527 -1.21159,0.58596 -2.1229,0.44498 -2.92925,-0.45317 z m 14.43226,5.54236 c -0.94948,-1.20259 -0.36357,-3.56345 1.0781,-4.344 2.9393,-1.5914 5.24997,2.47056 2.68248,4.71557 -1.054,0.92162 -2.88218,0.74098 -3.76058,-0.37157 z m -7.30075,-3.49125 c -1.03125,-2.59927 1.0352,-5.03774 3.46014,-4.08306 2.00787,0.79048 1.9211,4.04138 -0.13762,5.15602 -1.20924,0.65471 -2.84689,0.12586 -3.32252,-1.07296 z M 65.677162,59.65017 c -1.10393,-1.09826 -0.93675,-3.1521 0.34802,-4.2755 1.98167,-1.73277 4.75988,0.0732 4.10997,2.67161 -0.57534,2.30028 -2.91272,3.14122 -4.45799,1.60389 z m -6.01251,-6.69919 c -0.74846,-1.88052 0.38527,-3.96329 2.26214,-4.15577 2.9567,-0.30321 3.80948,4.18944 1.02515,5.40073 -1.37564,0.59845 -2.76268,0.0731 -3.28729,-1.24496 z m -4.872918,-6.61019 c -0.74822,-1.42352 -0.11754,-3.3837 1.30952,-4.07013 2.327708,-1.11962 4.367658,1.08318 3.363988,3.63255 -0.84752,2.15274 -3.634828,2.41371 -4.673508,0.43758 z m -3.02065,-7.59339 c -0.93221,-1.64753 -0.32698,-3.48836 1.39292,-4.23657 2.62211,-1.14073 4.64546,1.87562 2.89735,4.31929 -1.01801,1.42307 -3.46495,1.3759 -4.29027,-0.0827 z m -1.88425,-7.93809 c -1.26099,-1.59713 0.0928,-4.44478 2.21664,-4.66258 2.87367,-0.29469 3.7373,3.96702 1.09394,5.3982 -0.99816,0.54043 -2.58073,0.18878 -3.31058,-0.73562 z m -0.14351,-8.30263 c -1.28699,-1.63004 0.3063,-4.7586 2.41084,-4.73391 2.82119,0.0331 3.45007,4.32321 0.80258,5.47497 -1.06608,0.46378 -2.52842,0.12654 -3.21342,-0.74106 z m 26.839007,3.68635 c -1.785127,-2.2434 0.48714,-5.7012 3.0766,-4.68175 2.2141,0.87167 1.93305,4.70521 -0.40116,5.47172 -0.7566,0.24846 -2.18466,-0.1732 -2.67544,-0.78997 z M 51.434274,13.69397 c -1.04113,-2.39321 1.16788,-4.95442 3.48598,-4.04181 1.92589,0.75821 2.16924,3.36377 0.45424,4.86337 -1.24917,1.09227 -3.29302,0.66612 -3.94022,-0.82156 z m 32.767737,13.02771 c -0.9774,-1.67114 -0.24141,-3.76957 1.53124,-4.36578 2.22365,-0.74789 3.99015,1.34106 3.08287,3.6456 -0.84325,2.14191 -3.5367,2.5623 -4.61411,0.72018 z M 73.72433,19.19406 c -1.276574,-1.25384 -1.204014,-3.37233 0.154397,-4.50799 2.182014,-1.82422 5.004354,0.43271 3.935674,3.14722 -0.68863,1.74917 -2.93405,2.49621 -4.090071,1.36077 z m 17.956881,3.3679 c -1.69617,-2.23963 0.52768,-5.65984 2.9953,-4.60665 2.63219,1.12343 1.83807,5.46736 -1.01029,5.52639 -1.26661,0.0263 -1.26962,0.0249 -1.98501,-0.91974 z M 55.769964,6.19981 c -1.66346,-2.93988 2.03222,-6.14091 4.211888,-3.64815 1.21896,1.39405 0.59294,3.82918 -1.18301,4.60179 -1.066928,0.46416 -2.478048,0.0199 -3.028878,-0.95364 z m 20.526757,4.90956 c -0.77474,-1.023 -0.7149,-2.48127 0.1442,-3.51409 1.89007,-2.27227 5.1834,-0.72159 4.48487,2.11172 -0.64242,2.60568 -3.14386,3.36349 -4.62907,1.40237 z m 17.88424,3.20545 c -1.363,-2.83369 2.25388,-5.78369 4.26754,-3.48075 1.29601,1.48216 0.66749,4.13802 -1.12729,4.76345 -1.19133,0.41514 -2.60044,-0.16043 -3.14025,-1.28272 z M 62.168582,0.75192 c -1.29493,-0.75017 -1.49139,-2.99311 -0.3793,-4.33009 1.45354,-1.74746 4.22394,-0.92677 4.45429,1.31953 0.25654,2.50153 -2.0334,4.19331 -4.07499,3.01056 z m 31.633259,5.30733 c -0.97004,-2.22979 1.36529,-4.88701 3.5419,-4.0301 0.69915,0.27525 1.40922,1.6477 1.43246,2.7687 0.0595,2.87177 -3.84324,3.86144 -4.97436,1.2614 z M 68.455272,-4.78478 c -0.97982,-1.67526 -0.12558,-3.88508 1.71526,-4.43738 1.27201,-0.38161 2.212394,0.11676 2.809291,1.48883 1.354891,3.11445 -2.831821,5.8428 -4.524591,2.94854 z m 21.543259,4.05667 c -1.23644,-2.28369 0.97479,-4.99826 3.31954,-4.07515 0.80605,0.31733 1.06454,0.59068 1.38935,1.46913 1.20994,3.27239 -3.06667,5.63918 -4.70889,2.60602 z m -13.76192,-6.05637 c -1.712637,-3.02681 2.23363,-6.24395 4.30465,-3.50929 1.13513,1.49887 0.23762,4.24657 -1.52559,4.6705 -0.91314,0.21956 -2.33362,-0.37399 -2.77904,-1.16125 z m 8.26238,1.8604 c -2.15399,-1.99529 0.009,-6.06178 2.66787,-5.0151 2.99723,1.17999 1.56844,6.16404 -1.56999,5.47663 -0.43193,-0.0946 -0.92597,-0.30232 -1.09787,-0.46156 z"
             id="path2-4" /><path
             style="fill:#000000"
             d="m 110.36515,59.774742 c 0.76104,-1.28818 3.33524,-9.97776 3.98514,-13.45241 0.92451,-4.94284 0.62638,-4.4333 3.73506,-6.38387 1.5128,-0.94924 4.4412,-2.78772 6.50753,-4.08552 6.05462,-3.80273 6.42863,-4.01788 6.52851,-3.75567 0.557,1.46236 0.4763,11.58772 -0.10917,13.69566 -0.51566,1.85662 -0.7363,1.78318 2.98839,0.9945 1.69736,-0.3594 4.6779,-0.79648 6.62343,-0.97129 4.09503,-0.36795 3.95861,-0.3339 3.61344,-0.90187 -1.39909,-2.30221 -4.53991,-16.85409 -5.71241,-26.46646 -2.00426,-16.43108 -3.33229,-19.5914 -9.13531,-21.73932 -4.58609,-1.69749 -10.15054,-0.69915 -13.36805,2.39841 -7.61099,7.32727 -7.11557,41.52334 -18.149388,51.31243 -0.84694,0.7514 -1.55167,1.39609 -1.56607,1.43266 -0.0144,0.0366 1.13815,0.60853 2.561193,1.27104 3.846015,1.79055 8.518425,5.02396 10.038385,6.94679 0.59468,0.7523 0.87389,0.69584 1.45932,-0.29508 z m -6.02913,-6.28979 c -1.02924,-0.98521 -1.16829,-2.9069 -0.28702,-3.96638 2.13072,-2.56159 5.656,-0.38597 4.38826,2.70821 -0.77726,1.89703 -2.78907,2.51422 -4.10124,1.25817 z m 2.32389,-7.9199 c -1.64225,-2.80787 2.08297,-6.10629 4.19422,-3.71369 0.77009,0.87271 0.89306,1.80405 0.40436,3.06236 -0.8524,2.19488 -3.47828,2.56678 -4.59858,0.65133 z m 2.19858,-7.37732 c -1.70291,-2.24837 0.50867,-5.48553 3.0611,-4.48067 2.3717,0.93372 2.10718,4.54025 -0.39472,5.38173 -1.18611,0.39893 -1.85228,0.17381 -2.66638,-0.90106 z m 26.0019,5.12926 c -1.74294,-2.98002 2.04623,-6.16586 4.28641,-3.60389 0.66508,0.76062 0.74334,1.82795 0.22969,3.13267 -0.78181,1.98583 -3.46641,2.26596 -4.5161,0.47122 z m -17.69083,-8.09081 c -1.1629,-1.53554 -0.31553,-3.93628 1.59125,-4.50833 1.87428,-0.56229 3.66149,1.28992 3.09018,3.20258 -0.79432,2.65927 -3.15724,3.31835 -4.68143,1.30575 z m -6.74158,-4.92721 c -1.33685,-2.29134 0.83767,-5.37984 3.14753,-4.47046 1.59749,0.62891 2.11621,2.06584 1.39999,3.87815 -0.79282,2.00564 -3.51594,2.3604 -4.54752,0.59231 z m 23.29076,5.51497 c -1.77241,-3.13243 2.44007,-6.44443 4.38863,-3.4505 1.01345,1.55714 0.09,4.20309 -1.60957,4.61171 -0.91314,0.21955 -2.33362,-0.37399 -2.77908,-1.16116 z m -16.15649,-8.12195 c 0.24124,-0.52305 1.32399,-1.15245 6.14196,-4.06289 4.30864,-2.60277 5.40475,-3.2661 5.77186,-3.09827 0.208,0.0951 0.37185,0.94078 0.34396,1.06166 -0.25847,1.12006 -12.07731,7.61974 -12.28794,7.31948 -0.0679,-0.0968 -0.0752,-0.99158 0.0302,-1.21998 z m 7.57342,2.56998 c -1.23205,-2.83209 2.0591,-5.59993 4.19356,-3.52676 1.21824,1.18327 1.10293,3.16239 -0.25334,4.34832 -1.24917,1.09227 -3.29301,0.66612 -3.94022,-0.82156 z m -12.98648,-7.5377 c -2.05347,-2.00861 0.19886,-5.90948 2.81696,-4.87876 2.95372,1.16285 1.50343,6.13265 -1.5965,5.47084 -0.4328,-0.0924 -0.98198,-0.35887 -1.22046,-0.59208 z m 5.83102,0.78636 c 0.0785,-0.63379 0.18672,-1.71079 0.24058,-2.39335 0.65594,-8.31442 2.36518,-13.79795 4.63679,-14.8757 2.7552,-1.30718 5.0265,1.63347 6.03834,7.81785 0.72116,4.40772 1.08992,3.86981 -5.19625,7.57983 -5.97331,3.52537 -5.92217,3.50864 -5.71946,1.87137 z m 15.0622,4.59335 c -2.08245,-2.74967 1.47595,-6.40585 3.92212,-4.02991 1.66565,1.61783 0.52602,4.74131 -1.8176,4.98165 -1.12522,0.11539 -1.38545,-0.002 -2.10452,-0.95174 z m -19.75148,-13.31192 c -0.8079,-0.80843 -0.95464,-2.51628 -0.30512,-3.55113 1.34838,-2.14831 4.53799,-1.5621197 4.78843,0.88003 0.29473,2.87396 -2.57309,4.58257 -4.48331,2.6711 z m 18.44499,4.95612 c -0.84624,-1.563 -0.15222,-3.47374 1.52712,-4.20431 2.33669,-1.01655 4.26945,1.72588 2.92129,4.1452 -1.08259,1.94275 -3.41181,1.9737 -4.44841,0.0591 z M 115.38124,7.091202 c -0.64022,-0.77629 -0.72036,-1.80543 -0.23827,-3.05998 1.15018,-2.99333 5.23954,-1.89722 4.87901,1.30776 -0.28484,2.53207 -3.11598,3.60103 -4.64074,1.75222 z m 15.40817,5.39784 c -1.03058,-1.38224 -0.4781,-3.76893 1.04039,-4.49444 2.00942,-0.96006 3.9103,0.54634 3.64666,2.8899 -0.28329,2.5183 -3.24885,3.53351 -4.68705,1.60454 z m -9.21595,-9.82121 c -1.5042,-1.83273997 -0.19031,-4.81411 2.1429,-4.86247 2.05363,-0.0426 3.17538,2.22909 2.07544,4.20298 -0.94086,1.6884 -3.09716,2.02552 -4.21834,0.65949 z m 6.71357,1.66176 c -0.6617,-1.9674 0.40988,-3.89787997 2.2695,-4.0886 2.20035,-0.22564 3.4757,2.29586 2.27423,4.49635 -0.98739,1.80838 -3.88585,1.54828 -4.54373,-0.40775 z"
             id="path136-1" /><path
             style="fill:#000000"
             d="m 153.22703,48.413756 c 3.30243,-0.355673 6.63142,-0.3433 9.94039,-0.432001 -0.39093,-1.49911 -1.45424,-3.571829 -1.59359,-5.442549 -1.81124,-10.264722 -1.32942,-20.73258 -1.0914,-31.099402 0.0706,-1.8755659 -0.33846,-4.8890561 2.44239,-3.5520002 3.67533,0.7960365 7.68305,1.2503761 10.8054,3.5230082 2.24981,1.919297 3.35677,6.045811 0.79399,8.180104 -2.97106,2.246381 -7.16701,0.609049 -9.31138,-2.01026 -0.78316,-0.932068 -2.0338,-2.744615 -1.69109,-0.345482 -0.34896,3.364799 -0.98955,6.890336 -0.0191,10.203134 1.3224,2.804466 6.9237,4.278692 10.66882,3.80199 4.43075,-0.563973 9.20833,-3.467025 11.09268,-7.516569 2.1847,-4.69499 2.4389,-9.37355 -1.61588,-15.4509333 -2.82233,-4.6101933 -8.00215,-7.0071404 -13.12216,-8.04647072 -7.27929,-1.60275718 -14.75878,-1.80061408 -22.16868,-2.28075888 -1.38616,0.859888 1.00246,3.3687976 0.91787,4.9367342 2.27387,9.3853717 2.60004,19.1404877 2.25041,28.7544887 -0.25765,5.820919 -0.98818,11.665332 -2.90041,17.193357 1.5353,-0.122666 3.0681,-0.275304 4.60179,-0.41639 z m 0.0169,-3.70017 c -1.15795,-2.12336 0.85926,-5.009649 3.26714,-4.407722 2.6699,0.674432 2.49395,4.974373 -0.0746,5.72354 -1.21703,0.528764 -2.72542,-0.05649 -3.19256,-1.315818 z m 0.3183,-7.92688 c -1.33441,-2.571136 2.31227,-5.724272 4.48308,-3.5762 1.93531,2.05513 -0.26722,6.164538 -3.0833,5.079011 -0.65982,-0.270306 -1.13235,-0.859576 -1.39978,-1.502811 z m -0.002,-7.7378 c -1.56805,-2.675153 2.56194,-6.06524 4.52445,-3.36186 1.5072,1.965021 -0.22182,5.44062 -2.77171,4.98971 -0.82355,-0.186809 -1.4349,-0.875048 -1.75274,-1.62785 z m -0.33737,-7.81025 c -1.2652,-2.307034 1.67927,-5.504466 3.98432,-3.877884 2.0448,1.513108 1.16023,5.390778 -1.49931,5.527265 -1.13028,0.179512 -2.10237,-0.642755 -2.48501,-1.649381 z m 11.39846,4.2982 c -1.04836,-2.168878 1.29063,-4.834804 3.57372,-3.976814 2.60866,0.996906 1.83393,5.465499 -0.95771,5.610938 -1.13274,0.160392 -2.2284,-0.581461 -2.61601,-1.634124 z m 7.44348,2.70036 c -1.57395,-2.054889 0.5321,-5.425881 3.09925,-4.735869 2.42602,0.968594 2.25637,5.045358 -0.34351,5.732827 -1.03338,0.360641 -2.1563,-0.126241 -2.75574,-0.996958 z m -18.55248,-14.29577 c -2.2507,-2.051683 0.58626,-6.2832353 3.31549,-4.7982026 2.78532,1.4163066 1.04955,6.1262936 -1.97331,5.5957746 -0.58145,0.04696 -0.96978,-0.441334 -1.34218,-0.797572 z m 24.01207,8.82039 c -2.00258,-2.376612 1.32551,-6.389817 3.84419,-4.100647 2.34409,1.797925 0.16118,5.667545 -2.5587,5.06254 -0.54267,-0.120157 -0.98471,-0.509385 -1.28549,-0.961893 z M 152.72998,5.8174658 c -2.11312,-2.3650455 1.31848,-6.61276002 3.89305,-4.2866298 2.39834,1.9276644 -0.1355,6.1903564 -2.94375,5.1715362 -0.38933,-0.2041125 -0.6861,-0.5419197 -0.9493,-0.8849064 z m 25.53464,9.2474302 c -1.41831,-2.303119 1.62087,-5.7695878 3.94457,-3.905264 2.49633,1.660002 0.28632,6.254483 -2.55151,5.221862 -0.61818,-0.22928 -1.10409,-0.732892 -1.39306,-1.316598 z M 160.069,5.2243958 c -1.59223,-2.105996 0.51637,-5.78349812 3.19948,-4.80504444 2.47451,0.92475974 2.20934,4.95179484 -0.34366,5.61832294 -1.01435,0.3593392 -2.16261,-0.020442 -2.85582,-0.8132785 z m 7.21226,1.02359 c -1.41381,-2.1792006 1.18665,-5.62705416 3.62331,-4.2554989 2.38353,1.28037 1.38602,4.9877555 -1.02343,5.5359484 -1.04223,0.2669765 -2.13446,-0.3399122 -2.59988,-1.2804495 z m 7.18352,3.36082 c -2.01449,-1.8556853 0.0288,-5.8431878 2.76538,-4.9693858 2.96133,0.8881239 2.00054,5.692624 -0.99692,5.644176 -0.65065,0.02312 -1.29001,-0.241952 -1.76846,-0.6747902 z"
             id="path139-5" /><path
             id="path140-4"
             style="fill:#000000"
             d="m 213.49265,-3.1984224 c -1.38604,-0.1698442 -5.32874,3.46721545 -9.05543,3.50212234 -2.46193,0.0230602 -7.03051,-0.82067134 -7.14635,-0.80880634 -0.11583,0.01187 -0.22941,0.06138 -0.25373,0.257349 -0.0286,0.230872 1.74635,2.447773 2.31717,4.3444372 0.53174,1.7667909 0.69042,7.1162312 0.69557,15.8031702 -9.4e-4,10.828152 -2.35494,28.327388 -3.01274,34.914531 0,0 4.7721,-0.634357 7.40008,-0.593678 2.62798,0.04068 8.29457,0.924584 8.29457,0.924584 -4.12076,-13.724408 -4.27207,-35.927661 -2.68407,-50.2088652 0.4263,-1.6223988 1.58624,-4.1654232 2.22105,-5.4415282 0.71759,-1.471782 1.4479,-2.665865 1.22388,-2.693316 z m -8.55625,6.5866183 c 1.71297,8.83e-5 2.70469,0.9665959 2.70475,2.6484172 -1.3e-4,3.9819489 -5.80624,4.3788239 -5.80637,0.396875 5e-5,-1.6818213 1.38865,-3.0452039 3.10162,-3.0452922 z m -0.14831,9.4071781 c 0.86304,-0.06377 1.6044,0.290386 2.13269,1.037146 1.98807,2.810257 -1.57185,6.435642 -4.07521,4.150134 -1.48941,-1.359789 -0.88016,-4.272846 1.04232,-4.983675 0.3112,-0.115068 0.61252,-0.182351 0.9002,-0.203605 z m -0.0248,8.349878 c 2.373,-0.09859 3.7251,3.465685 1.39217,5.284432 -1.38083,1.076489 -3.23223,0.622557 -3.92121,-0.961182 -0.73403,-1.687268 -0.16715,-3.259868 1.45728,-4.041097 0.37291,-0.179344 0.73276,-0.268069 1.07176,-0.282153 z m -0.10076,8.48372 c 1.66282,0.04137 3.04965,1.994164 2.21123,4.123779 -0.59745,1.517579 -2.63313,2.347723 -3.72639,1.519804 -1.74448,-1.321069 -1.81885,-3.539667 -0.16743,-4.983675 0.54338,-0.47513 1.12831,-0.673698 1.68259,-0.659908 z m -0.22531,8.505941 c 0.97592,-0.0315 1.96458,0.542729 2.48098,1.824694 1.29025,3.203087 -3.094,5.708093 -4.77542,2.728516 -0.25472,-0.451389 -0.4257,-1.190908 -0.37982,-1.643827 0.18508,-1.826869 1.4195,-2.868886 2.67426,-2.909383 z m 0.51469,8.161259 c 2.31151,0.111205 3.44533,3.356587 1.3038,5.229138 -0.53559,0.468339 -2.38735,0.866679 -2.68769,0.578259 -0.032,-0.0307 -0.25883,-0.19684 -0.50385,-0.36897 -1.84592,-1.296778 -1.33362,-4.552785 0.83096,-5.280814 0.37217,-0.125175 0.72657,-0.1735 1.05678,-0.157613 z"
             transform="translate(-7.8577247,-0.37417621)" /><path
             style="fill:#000000"
             d="m 207.53314,3.3685145 c 0.37931,0.113826 1.02675,-0.215428 1.68109,-0.547811 4.12492,-2.09532204 15.106,-4.6038069 15.2907,-3.46611702 0.0215,0.13253 0.0788,2.30387002 0.12723,4.82522002 0.0485,2.52136 0.10247,4.9738105 0.12001,5.4498902 0.0175,0.4760803 0.0317,2.5289803 0.0315,4.5620103 -0.002,17.813039 -1.00867,37.35881 -2.06271,40.03614 -0.2901,0.73687 0.0463,0.54258 2.13148,-1.23086 2.83595,-2.41202 6.41292,-4.73599 9.24609,-6.0072 2.65321,-1.19047 2.65321,-1.19047 2.05313,-2.50546 -2.14921,-4.7097 -2.80125,-16.261341 -1.95821,-34.6920203 0.39921,-8.7275002 0.5708,-10.9033602 0.87009,-11.0332102 0.69781,-0.3027599 11.16804,-0.4574499 15.48531,-0.2287799 1.13459,0.0601 1.13252,0.068 0.45491,-1.74004 -0.3094,-0.8255701 -1.07626,-3.1414201 -1.70414,-5.1463301 -1.1416,-3.6452795 -1.1416,-3.6452795 -2.31259,-3.2928895 -1.43293,0.43123 -11.43533,1.431579 -16.17076,1.617239 -8.58366,0.3365505 -16.31599,0.1169105 -17.92679,-0.509229 -0.67812,-0.26375 -2.12914,3.4219195 -3.58016,7.1075895 -1.45101,3.68566998 -1.77618,6.801858 -1.77618,6.801858 z m 20.26498,42.6582825 c -1.84593,-1.29678 -1.33347,-4.55324 0.83111,-5.28127 2.97739,-1.0014 4.80782,2.93163 2.36035,5.07169 -0.53559,0.46834 -2.38742,0.86687 -2.68776,0.57845 -0.032,-0.0307 -0.25868,-0.19674 -0.5037,-0.36887 z m -0.92126,-9.046471 c -0.25472,-0.45139 -0.42559,-1.19127 -0.37971,-1.64419 0.32903,-3.24777 3.97446,-4.01473 5.15481,-1.08452 1.29025,3.20309 -3.09368,5.708291 -4.7751,2.72871 z m 1.00452,-7.41593 c -1.74448,-1.32107 -1.81913,-3.53953 -0.16771,-4.98354 2.17352,-1.90052 5.01182,0.6241 3.89393,3.46359 -0.59745,1.51758 -2.63296,2.34787 -3.72622,1.51995 z m -0.91339,-9.80391 c -0.73403,-1.687269 -0.16684,-3.259689 1.45759,-4.040919 2.98332,-1.43475 5.12987,2.923319 2.46366,5.001889 -1.38083,1.07649 -3.23227,0.62277 -3.92125,-0.96097 z m 0.61149,-7.485879 c -1.48941,-1.35979 -0.88016,-4.27268 1.04232,-4.9835105 1.24483,-0.46027 2.32877,-0.16253 3.03315,0.8331505 1.98808,2.81026 -1.57211,6.43587 -4.07547,4.15036 z m -0.41264,-8.7745905 c -0.42955,-0.9874 -0.43926,-1.33993 -0.0632,-2.29518 1.2579,-3.1951199 5.55029,-2.19675002 5.18932,1.207 -0.31829,3.00121 -3.95778,3.77381 -5.12613,1.08818 z m -14.35218,-6.5326899 c -0.27871,-0.3322701 -0.53753,-1.0561701 -0.57516,-1.6086801 -0.22709,-3.33392 3.83943,-4.64917 5.13892,-1.66211 1.30736,3.00516 -2.49862,5.73284998 -4.56376,3.2707901 z m 7.4439,-0.2149501 c -0.29149,-0.34706 -0.56997,-1.02102 -0.61885,-1.49771 -0.35376,-3.44954 3.9486,-4.861 5.13861,-1.68581 1.12555,3.00319 -2.51659,5.56853998 -4.51976,3.18352 z m 7.60925,-0.14577 c -1.3687,-1.50627 -0.709,-4.08818 1.23026,-4.815 1.14509,-0.42915 1.99466,-0.19955 2.84034,0.7676 2.35714,2.69571 -1.66495,6.69485998 -4.0706,4.0474 z m 7.13785,-0.87147 c -0.86603,-1.30833 -0.61146,-3.11825 0.58588,-4.1652 1.3191,-1.15342 3.21713,-0.67938 4.0708,1.01669 1.47855,2.93756 -2.85624,5.8684201 -4.65668,3.14851 z m 7.44432,-0.72009 c -0.87552,-2.01251 0.40017,-4.12745 2.51605,-4.17131 3.19037,-0.0661 3.63537,4.82828 0.52386,5.76174 -1.30001,0.3900101 -2.43718,-0.20493 -3.03991,-1.59043 z"
             id="path140-6" /><path
             style="fill:#000000"
             d="m 293.04078,79.337115 c -1.96711,-2.24201 -5.63592,-7.40619 -7.61671,-10.72122 -2.82344,-4.72529 -7.65707,-16.80176 -9.52803,-23.80516 -0.88859,-3.32616 -1.01247,-3.52492 -2.71645,-4.35881 -0.53131,-0.26 -1.38509,-0.76133 -1.89731,-1.11406 -2.75259,-1.89552 -13.59319,-8.29027 -13.78369,-8.13085 -1.23809,1.03609 0.34811,13.19813 2.02348,15.51487 0.50273,0.6952 0.50273,0.6952 -3.14643,0.31392 -4.49736,-0.46989 -9.60707,-0.70613 -11.23889,-0.51962 -1.76775,0.20204 -1.79077,0.17272 -0.88273,-1.12451 1.74191,-2.48849 2.79767,-6.75436 3.84578,-15.5392 0.13705,-1.14869 0.46878,-3.9664 0.73719,-6.26156 2.67632,-22.88542957 5.06987,-27.3998296 14.40355,-27.1661296 9.02748,0.22603 13.1728,5.01634 15.98518,18.4723696 3.8141,18.24891 9.24448,35.074 13.39497,41.50197 3.972,6.15152 8.1498,10.38962 12.06693,12.2411 1.20511,0.5696 1.12466,0.67959 -2.36557,3.23416 -4.49296,3.28849 -7.74673,6.38995 -7.96337,7.5906 -0.10858,0.60174 -0.73071,0.54138 -1.3179,-0.12787 z m 4.06752,-6.83986 c 2.04284,-2.24698 -0.28555,-5.95195 -3.05524,-4.86155 -2.7076,1.06597 -1.998,5.4595 0.93027,5.75979 1.04784,0.10747 1.31225,-0.004 2.12496,-0.89826 z m -5.15425,-6.59769 c 1.80871,-2.40311 -0.50331,-5.76982 -3.22617,-4.69786 -2.13095,0.83894 -2.09452,4.33185 0.0559,5.35569 1.29448,0.61633 2.38101,0.39087 3.17032,-0.65783 z m -3.71133,-7.43048 c 1.03043,-1.76536 0.39804,-3.88129 -1.39286,-4.66041 -2.66387,-1.15889 -4.66507,1.87991 -2.93253,4.45296 0.99397,1.47617 3.51428,1.59705 4.32539,0.20745 z m -3.94009,-7.1131 c 1.7467,-1.29554 1.80792,-3.5333 0.13664,-4.99467 -1.65353,-1.44585 -4.05297,-0.28831 -4.23906,2.04501 -0.1866,2.33973 2.40879,4.20584 4.10242,2.94966 z m -1.82654,-8.3092 c 0.97137,-1.15807 0.76883,-3.19744 -0.42086,-4.23771 -1.48206,-1.2959 -3.30547,-0.96219 -4.17483,0.76408 -1.50082,2.98015 2.48356,5.99171 4.59569,3.47363 z m -2.108,-8.00131 c 0.95042,-1.4358 0.56094,-3.36157 -0.88113,-4.35665 -2.37627,-1.63969 -4.99502,0.81978 -3.88461,3.64834 0.76052,1.93722 3.66637,2.36912 4.76574,0.70831 z m -26.41719,8.40844 c 1.0258,-1.22134 0.76919,-3.31139 -0.54797,-4.46312 -1.78114,-1.55742 -4.4459,-0.0395 -4.3055,2.45251 0.15185,2.69506 3.21338,3.96334 4.85347,2.01061 z m 18.19177,-9.30604 c 0.82416,-2.08578 -1.08495,-4.682 -3.09743,-4.21221 -2.69131,0.62824 -2.94974,4.51095 -0.3748,5.63115 1.44564,0.62891 2.89749,0.0356 3.47224,-1.41891 z m 6.46803,-7.90189 c 1.29095,-2.96742 -2.39257,-5.88181 -4.45418,-3.52409 -0.94132,1.07653 -0.99895,2.12532 -0.21286,3.87342 0.80268,1.78499 3.83735,1.55784 4.66704,-0.34933 z m -23.67628,8.46304 c 0.55007,-1.26443 0.32385,-2.61649 -0.5963,-3.56384 -2.49713,-2.57093 -5.92839,0.66738 -3.98609,3.76195 1.18981,1.89566 3.71908,1.78632 4.58239,-0.19811 z m 16.69831,-8.46304 c -0.40965,-0.83097 -1.89993,-1.56398 -8.34434,-5.28771 -2.97693,-1.72014 -4.00123,-2.30895 -4.37018,-2.19499 -0.32832,0.1014 -0.25086,1.36069 -0.2258,1.43971 0.15423,0.4863 0.76474,0.82906 2.64247,1.91193 1.36572,0.7876 2.90177,1.68282 3.41344,1.98938 1.12625,0.67482 6.63981,3.96479 7.0112,3.92078 0.20755,-0.18231 0.0201,-1.48106 -0.12679,-1.7791 z m -7.90825,4.15155 c 0.73753,-0.97384 0.83671,-1.71269 0.38417,-2.86215 -0.94512,-2.40067 -3.63769,-2.7743 -4.7806,-0.66334 -1.7049,3.14891 2.26851,6.33519 4.39643,3.52549 z m 6.88367,-7.55813 c -0.16929,-4.25919 -3.74559,-14.3400596 -5.49813,-15.4980896 -2.72573,-1.80108 -4.261,-0.33751 -5.4755,5.2197996 -0.92597,4.23704 -0.94917,4.12261 1.07243,5.28956 0.92665,0.5349 2.67027,1.54426 3.8747,2.24302 3.72023,2.15831 6.04525,3.21761 6.0265,2.74571 z m 5.38703,-3.17627 c 0.84941,-0.53399 1.38215,-2.48265 0.96701,-3.53713 -1.19461,-3.03437 -5.27222,-2.35112 -5.32946,0.89301 -0.0389,2.2057 2.55702,3.77912 4.36245,2.64412 z m -20.85019,7.85531 c 1.54899,-1.49378 1.02328,-4.34637 -0.9345,-5.07076 -3.11042,-1.15085 -5.06575,2.75583 -2.50153,4.99798 1.04152,0.91071 2.53434,0.94234 3.43603,0.0728 z m 1.19943,-8.31995 c 1.02414,-1.22805 0.76754,-3.31484 -0.54918,-4.46618 -1.89132,-1.65377 -4.71418,0.22231 -4.24727,2.82273 0.40711,2.26728 3.41633,3.29836 4.79645,1.64345 z m 18.17525,-8.18334 c 1.20388,-2.0583596 -0.0761,-4.6994096 -2.29651,-4.7385896 -1.09245,-0.0193 -1.9106,0.58722 -2.44297,1.81098 -1.3064,3.0029496 3.10256,5.7263896 4.73948,2.9276096 z m -16.71246,-0.49336 c 0.9214,-1.7907496 0.0976,-3.8488196 -1.76426,-4.4073396 -3.26583,-0.97976 -4.67113,4.1859996 -1.51257,5.5600896 1.56094,0.67907 2.50516,0.34691 3.27678,-1.15273 z m 11.95715,-6.1783296 c 2.08226,-3.02618 -1.71642,-6.51625 -4.24455,-3.89969997 -1.1944,1.23617997 -0.60598,3.82804997 1.05432,4.64406997 1.34401,0.66057 2.39172,0.4161 3.19023,-0.74437 z m -8.03239,0.10099 c 1.07929,-1.02384 1.16304,-2.99444 0.17764,-4.17910997 -2.44358,-2.93771003 -6.30543,0.5463 -4.07388,3.67527997 0.91719,1.28603 2.81324,1.53121 3.89624,0.50383 z"
             id="path137-9" /></g></g></g></g></svg>
